<?xml version="1.0" encoding="UTF-8" standalone="no"?>
<svg
   xmlns:dc="http://purl.org/dc/elements/1.1/"
   xmlns:cc="http://creativecommons.org/ns#"
   xmlns:rdf="http://www.w3.org/1999/02/22-rdf-syntax-ns#"
   xmlns:svg="http://www.w3.org/2000/svg"
   xmlns="http://www.w3.org/2000/svg"
   xmlns:sodipodi="http://sodipodi.sourceforge.net/DTD/sodipodi-0.dtd"
   xmlns:inkscape="http://www.inkscape.org/namespaces/inkscape"
   enable-background="new 0 0 32 32"
   height="32px"
   id="svg2"
   version="1.1"
   viewBox="0 0 32 32"
   width="32px"
   xml:space="preserve"
   sodipodi:docname="add_image.svg"
   inkscape:version="1.0.1 (0767f8302a, 2020-10-17)"><metadata
     id="metadata17"><rdf:RDF><cc:Work
         rdf:about=""><dc:format>image/svg+xml</dc:format><dc:type
           rdf:resource="http://purl.org/dc/dcmitype/StillImage" /></cc:Work></rdf:RDF></metadata><defs
     id="defs15" /><sodipodi:namedview
     pagecolor="#ffffff"
     bordercolor="#666666"
     borderopacity="1"
     objecttolerance="10"
     gridtolerance="10"
     guidetolerance="10"
     inkscape:pageopacity="0"
     inkscape:pageshadow="2"
     inkscape:window-width="1920"
     inkscape:window-height="976"
     id="namedview13"
     showgrid="false"
     inkscape:zoom="26.1875"
     inkscape:cx="16"
     inkscape:cy="15.866348"
     inkscape:window-x="1920"
     inkscape:window-y="27"
     inkscape:window-maximized="1"
     inkscape:current-layer="svg2"
     inkscape:document-rotation="0" /><g
     id="background"><rect
       fill="none"
       height="32"
       width="32"
       id="rect2" /></g><g
     id="image_x5F_add"
     style="fill:#00c3c0;fill-opacity:1"><path
       d="M28,8h-4l-4-4h-8.001L8,8H4c0,0-4,0-4,4v12c0,4,4,4,4,4s5.662,0,11.518,0c1.614,2.411,4.361,3.999,7.482,4   c3.875-0.002,7.167-2.454,8.436-5.888C31.995,25.076,32,24,32,24s0-8,0-12S28,8,28,8z M14.033,23.66C11.686,22.847,10,20.626,10,18   c0-3.312,2.684-6,6-6c1.914,0,3.607,0.908,4.706,2.306C16.848,15.321,14,18.822,14,23C14,23.223,14.018,23.441,14.033,23.66z    M23,29.883c-3.801-0.009-6.876-3.084-6.885-6.883c0.009-3.801,3.084-6.876,6.885-6.885c3.799,0.009,6.874,3.084,6.883,6.885   C29.874,26.799,26.799,29.874,23,29.883z"
       id="path5"
       style="fill:#00c3c0;fill-opacity:1" /><g
       id="g9"
       style="fill:#00c3c0;fill-opacity:1"><polygon
         points="28,22 24.002,22 24.002,18 22,18 22,22 18,22 18,24 22,24 22,28 24.002,28 24.002,24 28,24   "
         id="polygon7"
         style="fill:#00c3c0;fill-opacity:1" /></g></g></svg>
