<?xml version="1.0" encoding="UTF-8" standalone="no"?>
<svg
   xmlns:dc="http://purl.org/dc/elements/1.1/"
   xmlns:cc="http://creativecommons.org/ns#"
   xmlns:rdf="http://www.w3.org/1999/02/22-rdf-syntax-ns#"
   xmlns:svg="http://www.w3.org/2000/svg"
   xmlns="http://www.w3.org/2000/svg"
   xmlns:sodipodi="http://sodipodi.sourceforge.net/DTD/sodipodi-0.dtd"
   xmlns:inkscape="http://www.inkscape.org/namespaces/inkscape"
   enable-background="new 0 0 512 512"
   id="Layer_1"
   version="1.1"
   viewBox="0 0 32 32"
   xml:space="preserve"
   sodipodi:docname="back.svg"
   width="32"
   height="32"
   inkscape:version="1.0.1 (0767f8302a, 2020-10-17)"><metadata
     id="metadata13"><rdf:RDF><cc:Work
         rdf:about=""><dc:format>image/svg+xml</dc:format><dc:type
           rdf:resource="http://purl.org/dc/dcmitype/StillImage" /><dc:title /></cc:Work></rdf:RDF></metadata><defs
     id="defs11" /><sodipodi:namedview
     pagecolor="#ffffff"
     bordercolor="#666666"
     borderopacity="1"
     objecttolerance="10"
     gridtolerance="10"
     guidetolerance="10"
     inkscape:pageopacity="0"
     inkscape:pageshadow="2"
     inkscape:window-width="1920"
     inkscape:window-height="976"
     id="namedview9"
     showgrid="false"
     inkscape:zoom="13.09375"
     inkscape:cx="39.10538"
     inkscape:cy="12.736538"
     inkscape:window-x="1920"
     inkscape:window-y="27"
     inkscape:window-maximized="1"
     inkscape:current-layer="Layer_1"
     inkscape:document-rotation="0" /><g
     id="g6"
     transform="matrix(0.06223661,0,0,0.06223661,0.03412184,0.26166209)"><path
       d="m 10.5,266.5 c -2.8,0 -5.5,-1.1 -7.6,-3.2 -4,-4.2 -3.9,-10.9 0.3,-14.9 l 191.5,-185 c 4.2,-4 10.9,-3.9 14.9,0.3 4,4.2 3.9,10.9 -0.3,14.9 l -191.5,185 c -2,2 -4.6,2.9 -7.3,2.9 z"
       fill="#6a6e7c"
       id="path2"
       style="stroke:none;fill:#00c3c0;fill-opacity:1" /><path
       d="m 202,451.6 c -2.6,0 -5.3,-1 -7.3,-3 L 3.2,263.6 c -3.1,-3 -4.1,-7.6 -2.4,-11.5 1.6,-4 5.5,-6.6 9.8,-6.6 h 318.8 c 100.7,0 182.7,81.9 182.7,182.7 V 441 c 0,5.8 -4.7,10.5 -10.5,10.5 -5.8,0 -10.5,-4.7 -10.5,-10.5 V 428.1 C 491.1,339 418.6,266.5 329.5,266.5 H 36.6 l 172.7,166.9 c 4.2,4 4.3,10.7 0.3,14.9 -2.1,2.2 -4.8,3.3 -7.6,3.3 z"
       fill="#6a6e7c"
       id="path4"
       style="stroke:none;fill:#00c3c0;fill-opacity:1" /></g></svg>
