<?xml version="1.0" encoding="UTF-8" standalone="no"?>
<svg
   xmlns:dc="http://purl.org/dc/elements/1.1/"
   xmlns:cc="http://creativecommons.org/ns#"
   xmlns:rdf="http://www.w3.org/1999/02/22-rdf-syntax-ns#"
   xmlns:svg="http://www.w3.org/2000/svg"
   xmlns="http://www.w3.org/2000/svg"
   xmlns:sodipodi="http://sodipodi.sourceforge.net/DTD/sodipodi-0.dtd"
   xmlns:inkscape="http://www.inkscape.org/namespaces/inkscape"
   width="32"
   height="32"
   viewBox="0 0 32 32"
   version="1.1"
   id="svg4"
   sodipodi:docname="cancel.svg"
   inkscape:version="1.0.1 (0767f8302a, 2020-10-17)">
  <metadata
     id="metadata10">
    <rdf:RDF>
      <cc:Work
         rdf:about="">
        <dc:format>image/svg+xml</dc:format>
        <dc:type
           rdf:resource="http://purl.org/dc/dcmitype/StillImage" />
        <dc:title />
      </cc:Work>
    </rdf:RDF>
  </metadata>
  <defs
     id="defs8" />
  <sodipodi:namedview
     pagecolor="#ffffff"
     bordercolor="#666666"
     borderopacity="1"
     objecttolerance="10"
     gridtolerance="10"
     guidetolerance="10"
     inkscape:pageopacity="0"
     inkscape:pageshadow="2"
     inkscape:window-width="1920"
     inkscape:window-height="976"
     id="namedview6"
     showgrid="false"
     inkscape:zoom="17.428102"
     inkscape:cx="5.971139"
     inkscape:cy="24.943949"
     inkscape:window-x="1920"
     inkscape:window-y="27"
     inkscape:window-maximized="1"
     inkscape:current-layer="svg4"
     inkscape:document-rotation="0" />
  <path
     fill="#516976"
     d="m 1.6975363,1.8682651 h 0.6048384 c 0.4008264,0 0.7258059,0.3249797 0.7258059,0.7258061 V 8.3173547 C 5.6408404,3.8670746 10.482148,0.88328568 16.019685,0.90058408 24.268894,0.92641068 30.984596,7.6752582 30.971712,15.924468 30.95872,24.19775 24.247965,30.900509 15.971721,30.900509 c -3.866489,0 -7.3912452,-1.462923 -10.0510824,-3.865402 C 5.6113848,26.755793 5.5968082,26.27537 5.8914856,25.980693 l 0.4275602,-0.42756 c 0.2723589,-0.272359 0.7106247,-0.285121 0.9968946,-0.02745 2.291793,2.06262 5.3252386,3.318386 8.6557816,3.318386 7.121607,0 12.943539,-5.765986 12.943539,-12.943542 0,-7.1216099 -5.765983,-12.9435425 -12.943539,-12.9435425 -5.011812,0 -9.3590875,2.8473978 -11.5094088,7.0161257 h 5.9448958 c 0.400826,0 0.725806,0.3249798 0.725806,0.7258058 v 0.604839 c 0,0.400826 -0.32498,0.725806 -0.725806,0.725806 H 1.6975365 c -0.4008264,0 -0.725806,-0.32498 -0.725806,-0.725806 V 2.5940722 c 0,-0.4008264 0.3249796,-0.7258061 0.725806,-0.7258061 z"
     id="path2"
     style="stroke-width:0.456;fill:#00c3c0;stroke:none;stroke-opacity:1;stroke-miterlimit:4;stroke-dasharray:none;fill-opacity:1" />
</svg>
