<?xml version="1.0" encoding="UTF-8" standalone="no"?>
<svg
   xmlns:dc="http://purl.org/dc/elements/1.1/"
   xmlns:cc="http://creativecommons.org/ns#"
   xmlns:rdf="http://www.w3.org/1999/02/22-rdf-syntax-ns#"
   xmlns:svg="http://www.w3.org/2000/svg"
   xmlns="http://www.w3.org/2000/svg"
   xmlns:sodipodi="http://sodipodi.sourceforge.net/DTD/sodipodi-0.dtd"
   xmlns:inkscape="http://www.inkscape.org/namespaces/inkscape"
   width="32"
   height="32"
   viewBox="0 0 32 32"
   version="1.1"
   id="svg4"
   sodipodi:docname="close.svg"
   inkscape:version="1.0.1 (0767f8302a, 2020-10-17)">
  <metadata
     id="metadata10">
    <rdf:RDF>
      <cc:Work
         rdf:about="">
        <dc:format>image/svg+xml</dc:format>
        <dc:type
           rdf:resource="http://purl.org/dc/dcmitype/StillImage" />
        <dc:title />
      </cc:Work>
    </rdf:RDF>
  </metadata>
  <defs
     id="defs8" />
  <sodipodi:namedview
     pagecolor="#ffffff"
     bordercolor="#666666"
     borderopacity="1"
     objecttolerance="10"
     gridtolerance="10"
     guidetolerance="10"
     inkscape:pageopacity="0"
     inkscape:pageshadow="2"
     inkscape:window-width="1920"
     inkscape:window-height="976"
     id="namedview6"
     showgrid="false"
     inkscape:zoom="13.09375"
     inkscape:cx="14.92259"
     inkscape:cy="17.400436"
     inkscape:window-x="1920"
     inkscape:window-y="27"
     inkscape:window-maximized="1"
     inkscape:current-layer="svg4"
     inkscape:document-rotation="0" />
  <path
     fill="#3DB4E7"
     fill-rule="evenodd"
     d="M 30.808541,28.647084 18.422646,16.261815 30.808541,3.8765444 c 0.420684,-0.4206624 0.420684,-1.1103059 0,-1.5309683 L 30.04403,1.5790807 c -0.422706,-0.4226847 -1.112384,-0.4226847 -1.533068,0 L 16.125066,13.964351 3.7391692,1.5790807 c -0.4227061,-0.4226847 -1.1123845,-0.4226847 -1.5330681,0 L 1.439567,2.3455761 c -0.4206836,0.4206624 -0.4206836,1.1103059 0,1.5309683 L 13.827486,16.261815 1.439567,28.647084 c -0.4206836,0.420663 -0.4206836,1.110306 0,1.532991 l 0.7665341,0.766495 c 0.4206836,0.420663 1.110362,0.420663 1.5330681,0 L 16.125066,18.5613 28.510962,30.94657 c 0.420684,0.420663 1.110362,0.420663 1.533068,0 l 0.764511,-0.766495 c 0.420684,-0.422685 0.420684,-1.112328 0,-1.532991"
     id="path2"
     style="fill:#00c3c0;fill-opacity:1;stroke-width:2.02247" />
</svg>
