<?xml version="1.0" encoding="UTF-8" standalone="no"?>
<svg
   xmlns:dc="http://purl.org/dc/elements/1.1/"
   xmlns:cc="http://creativecommons.org/ns#"
   xmlns:rdf="http://www.w3.org/1999/02/22-rdf-syntax-ns#"
   xmlns:svg="http://www.w3.org/2000/svg"
   xmlns="http://www.w3.org/2000/svg"
   xmlns:sodipodi="http://sodipodi.sourceforge.net/DTD/sodipodi-0.dtd"
   xmlns:inkscape="http://www.inkscape.org/namespaces/inkscape"
   version="1.1"
   id="Capa_1"
   x="0px"
   y="0px"
   viewBox="0 0 32 32"
   xml:space="preserve"
   sodipodi:docname="pause.svg"
   width="32"
   height="32"
   inkscape:version="1.0.1 (0767f8302a, 2020-10-17)"><metadata
   id="metadata47"><rdf:RDF><cc:Work
       rdf:about=""><dc:format>image/svg+xml</dc:format><dc:type
         rdf:resource="http://purl.org/dc/dcmitype/StillImage" /><dc:title /></cc:Work></rdf:RDF></metadata><defs
   id="defs45" /><sodipodi:namedview
   pagecolor="#ffffff"
   bordercolor="#666666"
   borderopacity="1"
   objecttolerance="10"
   gridtolerance="10"
   guidetolerance="10"
   inkscape:pageopacity="0"
   inkscape:pageshadow="2"
   inkscape:window-width="1920"
   inkscape:window-height="976"
   id="namedview43"
   showgrid="false"
   showguides="true"
   inkscape:guide-bbox="true"
   inkscape:zoom="17.431114"
   inkscape:cx="24.310541"
   inkscape:cy="27.995823"
   inkscape:window-x="0"
   inkscape:window-y="27"
   inkscape:window-maximized="1"
   inkscape:current-layer="Capa_1"
   inkscape:document-rotation="0"><sodipodi:guide
     position="16.033611,38.657115"
     orientation="1,0"
     id="guide872" /><sodipodi:guide
     position="17.38271,15.994138"
     orientation="0,-1"
     id="guide874" /></sodipodi:namedview>
<g
   id="g10"
   transform="matrix(0.11789038,0,0,0.11789082,0.00323024,0.01733332)"
   style="fill:#ffffff;fill-opacity:1">
	<g
   id="g8"
   style="fill:#ffffff;fill-opacity:1">
		<path
   style="fill:#ffffff;fill-opacity:1"
   d="m 135.977,271.953 c 75.097,0 135.977,-60.879 135.977,-135.977 C 271.954,60.878 211.074,0 135.977,0 60.88,0 0,60.879 0,135.977 0,211.075 60.879,271.953 135.977,271.953 Z m 0,-250.197 c 62.979,0 114.22,51.241 114.22,114.22 0,62.979 -51.241,114.22 -114.22,114.22 -62.979,0 -114.22,-51.241 -114.22,-114.22 0,-62.979 51.235,-114.22 114.22,-114.22 z"
   id="path2" />
		<path
   style="fill:#ffffff;fill-opacity:1"
   d="m 110.707,200.114 c 7.511,0 13.598,-6.086 13.598,-13.598 V 83.174 c 0,-7.511 -6.086,-13.598 -13.598,-13.598 -7.511,0 -13.598,6.086 -13.598,13.598 v 103.342 c 0,7.512 6.086,13.598 13.598,13.598 z"
   id="path4" />
		<path
   style="fill:#ffffff;fill-opacity:1"
   d="m 165.097,200.114 c 7.511,0 13.598,-6.086 13.598,-13.598 V 83.174 c 0,-7.511 -6.086,-13.598 -13.598,-13.598 -7.512,0 -13.597,6.087 -13.597,13.598 v 103.342 c 0,7.512 6.086,13.598 13.597,13.598 z"
   id="path6" />
	</g>
</g>
<g
   id="g12">
</g>
<g
   id="g14">
</g>
<g
   id="g16">
</g>
<g
   id="g18">
</g>
<g
   id="g20">
</g>
<g
   id="g22">
</g>
<g
   id="g24">
</g>
<g
   id="g26">
</g>
<g
   id="g28">
</g>
<g
   id="g30">
</g>
<g
   id="g32">
</g>
<g
   id="g34">
</g>
<g
   id="g36">
</g>
<g
   id="g38">
</g>
<g
   id="g40">
</g>
</svg>
