<?xml version="1.0" encoding="UTF-8" standalone="no"?>
<svg
   xmlns:dc="http://purl.org/dc/elements/1.1/"
   xmlns:cc="http://creativecommons.org/ns#"
   xmlns:rdf="http://www.w3.org/1999/02/22-rdf-syntax-ns#"
   xmlns:svg="http://www.w3.org/2000/svg"
   xmlns="http://www.w3.org/2000/svg"
   xmlns:sodipodi="http://sodipodi.sourceforge.net/DTD/sodipodi-0.dtd"
   xmlns:inkscape="http://www.inkscape.org/namespaces/inkscape"
   id="Capa_1"
   enable-background="new 0 0 512 512"
   height="32"
   viewBox="0 0 31.999997 31.999996"
   width="32"
   version="1.1"
   sodipodi:docname="rumor.svg"
   inkscape:version="1.0.1 (0767f8302a, 2020-10-17)">
  <metadata
     id="metadata17">
    <rdf:RDF>
      <cc:Work
         rdf:about="">
        <dc:format>image/svg+xml</dc:format>
        <dc:type
           rdf:resource="http://purl.org/dc/dcmitype/StillImage" />
        <dc:title />
      </cc:Work>
    </rdf:RDF>
  </metadata>
  <defs
     id="defs15" />
  <sodipodi:namedview
     pagecolor="#ffffff"
     bordercolor="#666666"
     borderopacity="1"
     objecttolerance="10"
     gridtolerance="10"
     guidetolerance="10"
     inkscape:pageopacity="0"
     inkscape:pageshadow="2"
     inkscape:window-width="1920"
     inkscape:window-height="976"
     id="namedview13"
     showgrid="false"
     inkscape:zoom="18.517359"
     inkscape:cx="7.4472821"
     inkscape:cy="17.305287"
     inkscape:window-x="1920"
     inkscape:window-y="27"
     inkscape:window-maximized="1"
     inkscape:current-layer="Capa_1"
     inkscape:document-rotation="0"
     units="px"
     width="32mm"
     fit-margin-top="0"
     fit-margin-left="0"
     fit-margin-right="0"
     fit-margin-bottom="0"
     showguides="true"
     inkscape:guide-bbox="true" />
  <g
     id="g10"
     transform="matrix(0.06242007,0,0,0.06242007,0,0.12638962)"
     style="opacity:0.99800006">
    <path
       d="m 481.251,280.748 c -5.859,-5.857 -15.357,-5.854 -21.213,0.006 -5.856,5.859 -5.854,15.357 0.006,21.213 14.158,14.15 21.956,32.981 21.956,53.023 0,20.044 -7.807,38.881 -21.982,53.04 -5.861,5.854 -5.866,15.352 -0.012,21.213 2.93,2.933 6.771,4.399 10.612,4.399 3.836,0 7.673,-1.463 10.601,-4.388 19.849,-19.825 30.781,-46.2 30.781,-74.264 0,-28.058 -10.92,-54.425 -30.749,-74.242 z"
       id="path2"
       style="fill:#00c3c0;fill-opacity:1" />
    <path
       d="m 417.606,323.171 c -5.858,5.857 -5.858,15.355 0,21.213 2.833,2.833 4.394,6.6 4.394,10.606 0,4.006 -1.561,7.773 -4.394,10.606 -5.858,5.857 -5.858,15.355 0,21.213 2.929,2.929 6.768,4.394 10.606,4.394 3.838,0 7.678,-1.465 10.606,-4.394 17.546,-17.545 17.546,-46.094 0,-63.639 -5.856,-5.857 -15.354,-5.857 -21.212,10e-4 z"
       id="path4"
       style="fill:#00c3c0;fill-opacity:1" />
    <path
       d="M 370,210.458 V 195 C 370,92.99 287.01,10 185,10 82.99,10 0,92.99 0,195 v 23.977 c 0,56.079 26.024,109.157 70,143.534 V 487 c 0,8.284 6.716,15 15,15 h 180 c 8.284,0 15,-6.716 15,-15 v -47 h 45 c 24.813,0 45,-20.187 45,-45 v -20 c 0,-5.172 -2.664,-9.979 -7.05,-12.72 L 343.302,350 362.95,337.72 C 367.336,334.979 370,330.172 370,325 v -28.288 l 28.638,-7.16 c 4.732,-1.183 8.594,-4.593 10.354,-9.143 1.759,-4.55 1.195,-9.671 -1.511,-13.729 z m -18.638,59.99 C 344.685,272.117 340,278.117 340,285 v 31.687 l -32.95,20.594 c -4.386,2.741 -7.05,7.548 -7.05,12.72 0,5.172 2.664,9.979 7.05,12.72 L 340,383.313 V 395 c 0,8.271 -6.729,15 -15,15 h -60 c -8.284,0 -15,6.716 -15,15 v 47 H 100 V 355 c 0,-4.844 -2.34,-9.391 -6.281,-12.206 C 53.82,314.295 30,268.008 30,218.977 V 195 C 30,109.532 99.532,40 185,40 c 85.468,0 155,69.532 155,155 v 20 c 0,2.961 0.877,5.856 2.52,8.32 l 28.192,42.29 z"
       id="path6"
       style="fill:#00c3c0;fill-opacity:1" />
    <path
       d="m 175.403,279.73 c -6.864,-4.641 -16.188,-2.84 -20.829,4.022 -2.866,4.238 -6.323,6.645 -10.275,7.151 -4.974,0.634 -10.837,-1.757 -16.51,-6.742 -16.69,-14.667 -24.775,-44.84 -17.655,-65.888 2.421,-7.154 6.302,-12.16 10.928,-14.095 3.677,-1.535 7.874,-1.181 12.474,1.057 7.452,3.62 16.427,0.519 20.05,-6.931 3.622,-7.45 0.52,-16.427 -6.931,-20.05 -12.331,-5.996 -25.53,-6.619 -37.164,-1.754 -12.689,5.305 -22.553,16.726 -27.774,32.159 -10.959,32.397 0.58,75.46 26.269,98.036 10.628,9.339 22.773,14.308 34.721,14.308 1.811,0 3.616,-0.114 5.411,-0.345 12.509,-1.604 23.628,-8.743 31.31,-20.101 4.638,-6.86 2.838,-16.185 -4.025,-20.827 z"
       id="path8"
       style="fill:#00c3c0;fill-opacity:1" />
  </g>
</svg>
